<svg width="21" height="20" viewBox="0 0 21 20" fill="none" xmlns="http://www.w3.org/2000/svg">
<path fill-rule="evenodd" clip-rule="evenodd" d="M3.625 7.5V5.83333C3.625 5.115 3.91 4.42583 4.41833 3.91833C4.92583 3.41 5.615 3.125 6.33333 3.125H8C8.345 3.125 8.625 2.845 8.625 2.5C8.625 2.155 8.345 1.875 8 1.875H6.33333C5.28333 1.875 4.27667 2.29167 3.53417 3.03417C2.79167 3.77667 2.375 4.78333 2.375 5.83333V7.5C2.375 7.845 2.655 8.125 3 8.125C3.345 8.125 3.625 7.845 3.625 7.5Z" fill="#111827"/>
<path fill-rule="evenodd" clip-rule="evenodd" d="M13 3.125H14.6667C15.385 3.125 16.0742 3.41 16.5817 3.91833C17.09 4.42583 17.375 5.115 17.375 5.83333V7.5C17.375 7.845 17.655 8.125 18 8.125C18.345 8.125 18.625 7.845 18.625 7.5V5.83333C18.625 4.78333 18.2083 3.77667 17.4658 3.03417C16.7233 2.29167 15.7167 1.875 14.6667 1.875C13.7483 1.875 13 1.875 13 1.875C12.655 1.875 12.375 2.155 12.375 2.5C12.375 2.845 12.655 3.125 13 3.125Z" fill="#111827"/>
<path fill-rule="evenodd" clip-rule="evenodd" d="M2.375 12.5V14.1667C2.375 15.2167 2.79167 16.2233 3.53417 16.9658C4.27667 17.7083 5.28333 18.125 6.33333 18.125H8C8.345 18.125 8.625 17.845 8.625 17.5C8.625 17.155 8.345 16.875 8 16.875H6.33333C5.615 16.875 4.92583 16.59 4.41833 16.0817C3.91 15.5742 3.625 14.885 3.625 14.1667C3.625 13.2483 3.625 12.5 3.625 12.5C3.625 12.155 3.345 11.875 3 11.875C2.655 11.875 2.375 12.155 2.375 12.5Z" fill="#111827"/>
<path fill-rule="evenodd" clip-rule="evenodd" d="M13 18.125H14.6667C15.7167 18.125 16.7233 17.7083 17.4658 16.9658C18.2083 16.2233 18.625 15.2167 18.625 14.1667C18.625 13.2483 18.625 12.5 18.625 12.5C18.625 12.155 18.345 11.875 18 11.875C17.655 11.875 17.375 12.155 17.375 12.5V14.1667C17.375 14.885 17.09 15.5742 16.5817 16.0817C16.0742 16.59 15.385 16.875 14.6667 16.875C13.7483 16.875 13 16.875 13 16.875C12.655 16.875 12.375 17.155 12.375 17.5C12.375 17.845 12.655 18.125 13 18.125Z" fill="#111827"/>
<path fill-rule="evenodd" clip-rule="evenodd" d="M12.7917 7.08333V7.91666C12.7917 8.26166 13.0717 8.54166 13.4167 8.54166C13.7617 8.54166 14.0417 8.26166 14.0417 7.91666V7.08333C14.0417 6.73833 13.7617 6.45833 13.4167 6.45833C13.0717 6.45833 12.7917 6.73833 12.7917 7.08333Z" fill="#111827"/>
<path fill-rule="evenodd" clip-rule="evenodd" d="M6.95831 7.08333V7.91666C6.95831 8.26166 7.23831 8.54166 7.58331 8.54166C7.92831 8.54166 8.20831 8.26166 8.20831 7.91666V7.08333C8.20831 6.73833 7.92831 6.45833 7.58331 6.45833C7.23831 6.45833 6.95831 6.73833 6.95831 7.08333Z" fill="#111827"/>
<path fill-rule="evenodd" clip-rule="evenodd" d="M10.2916 10.4467V8.33333C10.2916 7.98833 10.5716 7.70833 10.9166 7.70833C11.2616 7.70833 11.5416 7.98833 11.5416 8.33333V10.8333C11.5416 11.07 11.4075 11.2867 11.1958 11.3925L10.3625 11.8092C10.0541 11.9633 9.6783 11.8383 9.52414 11.5292C9.36997 11.2208 9.49497 10.845 9.80414 10.6908L10.2916 10.4467Z" fill="#111827"/>
<path fill-rule="evenodd" clip-rule="evenodd" d="M12.975 12.475C13.0883 12.3617 13.2441 12.2917 13.4166 12.2917C13.7616 12.2917 14.0416 12.5717 14.0416 12.9167C14.0416 13.0892 13.9716 13.245 13.8583 13.3583C13.745 13.4717 13.8583 13.3592 13.8575 13.36C12.0033 15.2142 8.99665 15.2142 7.14248 13.36C7.14165 13.3592 7.14165 13.3583 7.14165 13.3583C7.02831 13.245 6.95831 13.0892 6.95831 12.9167C6.95831 12.5717 7.23831 12.2917 7.58331 12.2917C7.75581 12.2917 7.91165 12.3617 8.02498 12.475C8.13831 12.5883 8.02581 12.475 8.02665 12.4758C9.39248 13.8417 11.6075 13.8417 12.9733 12.4758C12.9741 12.475 12.975 12.475 12.975 12.475Z" fill="#111827"/>
</svg>
